# xmcd
#
# Track frame offsets:
#	150
#	9622
#	26322
#	41817
#	63541
#	70123
#	88717
#	98920
#	113069
#	128918
#	156438
#	168957
#	179338
#	190553
#	207239
#	227165
#
# Disc length: 3227 seconds
#
# Revision: 1
# Processed by: cddbd v1.5.2PL0 Copyright (c) Steve Scherf et al.
# Submitted via: audiograbber 1.83.01
#
DISCID=d30c9910
DTITLE=Peder af Ugglas - Peder af Ugglas
DYEAR=2009
DGENRE=Blues
TTITLE0=Way Out
TTITLE1=Wedding
TTITLE2=Carry On
TTITLE3=Twentynine Years
TTITLE4=I'm Walking
TTITLE5=Open Sea
TTITLE6=Yellow Grass
TTITLE7=Furillen
TTITLE8=Together
TTITLE9=1987
TTITLE10=Worried Mind
TTITLE11=Relief
TTITLE12=In Between
TTITLE13=Another Day
TTITLE14=TurnAroundTen
TTITLE15=Night Cap
EXTD=
EXTT0=
EXTT1=
EXTT2=
EXTT3=
EXTT4=
EXTT5=
EXTT6=
EXTT7=
EXTT8=
EXTT9=
EXTT10=
EXTT11=
EXTT12=
EXTT13=
EXTT14=
EXTT15=
PLAYORDER=
